  0
SECTION
  2
BLOCKS
  0
ENDSEC
  0
SECTION
  2
ENTITIES
  0
LINE
  8
0
 10
21.1526
 20
-31.9572
 11
21.7941
 21
-31.8296
  0
LINE
  8
0
 10
21.7941
 20
-31.8296
 11
22.4134
 21
-31.6194
  0
LINE
  8
0
 10
22.4134
 20
-31.6194
 11
23
 21
-31.3301
  0
LINE
  8
0
 10
23
 20
-31.3301
 11
23.5438
 21
-30.9668
  0
LINE
  8
0
 10
23.5438
 20
-30.9668
 11
24.0355
 21
-30.5355
  0
LINE
  8
0
 10
24.0355
 20
-30.5355
 11
24.4668
 21
-30.0438
  0
LINE
  8
0
 10
24.4668
 20
-30.0438
 11
24.8301
 21
-29.5
  0
LINE
  8
0
 10
24.8301
 20
-29.5
 11
25.1194
 21
-28.9134
  0
LINE
  8
0
 10
25.1194
 20
-28.9134
 11
25.3296
 21
-28.2941
  0
LINE
  8
0
 10
25.3296
 20
-28.2941
 11
25.4572
 21
-27.6526
  0
LINE
  8
0
 10
25.4572
 20
-27.6526
 11
25.5
 21
-27
  0
LINE
  8
0
 10
25.5
 20
-27
 11
25.5
 21
27
  0
LINE
  8
0
 10
25.5
 20
27
 11
25.4572
 21
27.6526
  0
LINE
  8
0
 10
25.4572
 20
27.6526
 11
25.3296
 21
28.2941
  0
LINE
  8
0
 10
25.3296
 20
28.2941
 11
25.1194
 21
28.9134
  0
LINE
  8
0
 10
25.1194
 20
28.9134
 11
24.8301
 21
29.5
  0
LINE
  8
0
 10
24.8301
 20
29.5
 11
24.4668
 21
30.0438
  0
LINE
  8
0
 10
24.4668
 20
30.0438
 11
24.0355
 21
30.5355
  0
LINE
  8
0
 10
24.0355
 20
30.5355
 11
23.5438
 21
30.9668
  0
LINE
  8
0
 10
23.5438
 20
30.9668
 11
23
 21
31.3301
  0
LINE
  8
0
 10
23
 20
31.3301
 11
22.4134
 21
31.6194
  0
LINE
  8
0
 10
22.4134
 20
31.6194
 11
21.7941
 21
31.8296
  0
LINE
  8
0
 10
21.7941
 20
31.8296
 11
21.1526
 21
31.9572
  0
LINE
  8
0
 10
21.1526
 20
31.9572
 11
20.5
 21
32
  0
LINE
  8
0
 10
20.5
 20
32
 11
-20.5
 21
32
  0
LINE
  8
0
 10
-20.5
 20
32
 11
-21.1526
 21
31.9572
  0
LINE
  8
0
 10
-21.1526
 20
31.9572
 11
-21.7941
 21
31.8296
  0
LINE
  8
0
 10
-21.7941
 20
31.8296
 11
-22.4134
 21
31.6194
  0
LINE
  8
0
 10
-22.4134
 20
31.6194
 11
-23
 21
31.3301
  0
LINE
  8
0
 10
-23
 20
31.3301
 11
-23.5438
 21
30.9668
  0
LINE
  8
0
 10
-23.5438
 20
30.9668
 11
-24.0355
 21
30.5355
  0
LINE
  8
0
 10
-24.0355
 20
30.5355
 11
-24.4668
 21
30.0438
  0
LINE
  8
0
 10
-24.4668
 20
30.0438
 11
-24.8301
 21
29.5
  0
LINE
  8
0
 10
-24.8301
 20
29.5
 11
-25.1194
 21
28.9134
  0
LINE
  8
0
 10
-25.1194
 20
28.9134
 11
-25.3296
 21
28.2941
  0
LINE
  8
0
 10
-25.3296
 20
28.2941
 11
-25.4572
 21
27.6526
  0
LINE
  8
0
 10
-25.4572
 20
27.6526
 11
-25.5
 21
27
  0
LINE
  8
0
 10
-25.5
 20
27
 11
-25.5
 21
-27
  0
LINE
  8
0
 10
-25.5
 20
-27
 11
-25.4572
 21
-27.6526
  0
LINE
  8
0
 10
-25.4572
 20
-27.6526
 11
-25.3296
 21
-28.2941
  0
LINE
  8
0
 10
-25.3296
 20
-28.2941
 11
-25.1194
 21
-28.9134
  0
LINE
  8
0
 10
-25.1194
 20
-28.9134
 11
-24.8301
 21
-29.5
  0
LINE
  8
0
 10
-24.8301
 20
-29.5
 11
-24.4668
 21
-30.0438
  0
LINE
  8
0
 10
-24.4668
 20
-30.0438
 11
-24.0355
 21
-30.5355
  0
LINE
  8
0
 10
-24.0355
 20
-30.5355
 11
-23.5438
 21
-30.9668
  0
LINE
  8
0
 10
-23.5438
 20
-30.9668
 11
-23
 21
-31.3301
  0
LINE
  8
0
 10
-23
 20
-31.3301
 11
-22.4134
 21
-31.6194
  0
LINE
  8
0
 10
-22.4134
 20
-31.6194
 11
-21.7941
 21
-31.8296
  0
LINE
  8
0
 10
-21.7941
 20
-31.8296
 11
-21.1526
 21
-31.9572
  0
LINE
  8
0
 10
-21.1526
 20
-31.9572
 11
-20.5
 21
-32
  0
LINE
  8
0
 10
-20.5
 20
-32
 11
20.5
 21
-32
  0
LINE
  8
0
 10
20.5
 20
-32
 11
21.1526
 21
-31.9572
  0
LINE
  8
0
 10
15.2846
 20
20.3641
 11
15.0729
 21
20.4062
  0
LINE
  8
0
 10
15.0729
 20
20.4062
 11
14.8686
 21
20.4756
  0
LINE
  8
0
 10
14.8686
 20
20.4756
 11
14.675
 21
20.571
  0
LINE
  8
0
 10
14.675
 20
20.571
 11
14.4955
 21
20.691
  0
LINE
  8
0
 10
14.4955
 20
20.691
 11
14.3333
 21
20.8333
  0
LINE
  8
0
 10
14.3333
 20
20.8333
 11
14.191
 21
20.9955
  0
LINE
  8
0
 10
14.191
 20
20.9955
 11
14.071
 21
21.175
  0
LINE
  8
0
 10
14.071
 20
21.175
 11
13.9756
 21
21.3686
  0
LINE
  8
0
 10
13.9756
 20
21.3686
 11
13.9062
 21
21.5729
  0
LINE
  8
0
 10
13.9062
 20
21.5729
 11
13.8641
 21
21.7846
  0
LINE
  8
0
 10
13.8641
 20
21.7846
 11
13.85
 21
22
  0
LINE
  8
0
 10
13.85
 20
22
 11
13.8641
 21
22.2154
  0
LINE
  8
0
 10
13.8641
 20
22.2154
 11
13.9062
 21
22.427
  0
LINE
  8
0
 10
13.9062
 20
22.427
 11
13.9756
 21
22.6314
  0
LINE
  8
0
 10
13.9756
 20
22.6314
 11
14.071
 21
22.825
  0
LINE
  8
0
 10
14.071
 20
22.825
 11
14.191
 21
23.0045
  0
LINE
  8
0
 10
14.191
 20
23.0045
 11
14.3333
 21
23.1667
  0
LINE
  8
0
 10
14.3333
 20
23.1667
 11
14.4955
 21
23.309
  0
LINE
  8
0
 10
14.4955
 20
23.309
 11
14.675
 21
23.4289
  0
LINE
  8
0
 10
14.675
 20
23.4289
 11
14.8686
 21
23.5244
  0
LINE
  8
0
 10
14.8686
 20
23.5244
 11
15.0729
 21
23.5938
  0
LINE
  8
0
 10
15.0729
 20
23.5938
 11
15.2846
 21
23.6359
  0
LINE
  8
0
 10
15.2846
 20
23.6359
 11
15.5
 21
23.65
  0
LINE
  8
0
 10
15.5
 20
23.65
 11
15.7154
 21
23.6359
  0
LINE
  8
0
 10
15.7154
 20
23.6359
 11
15.927
 21
23.5938
  0
LINE
  8
0
 10
15.927
 20
23.5938
 11
16.1314
 21
23.5244
  0
LINE
  8
0
 10
16.1314
 20
23.5244
 11
16.325
 21
23.4289
  0
LINE
  8
0
 10
16.325
 20
23.4289
 11
16.5045
 21
23.309
  0
LINE
  8
0
 10
16.5045
 20
23.309
 11
16.6667
 21
23.1667
  0
LINE
  8
0
 10
16.6667
 20
23.1667
 11
16.809
 21
23.0045
  0
LINE
  8
0
 10
16.809
 20
23.0045
 11
16.9289
 21
22.825
  0
LINE
  8
0
 10
16.9289
 20
22.825
 11
17.0244
 21
22.6314
  0
LINE
  8
0
 10
17.0244
 20
22.6314
 11
17.0938
 21
22.427
  0
LINE
  8
0
 10
17.0938
 20
22.427
 11
17.1359
 21
22.2154
  0
LINE
  8
0
 10
17.1359
 20
22.2154
 11
17.15
 21
22
  0
LINE
  8
0
 10
17.15
 20
22
 11
17.1359
 21
21.7846
  0
LINE
  8
0
 10
17.1359
 20
21.7846
 11
17.0938
 21
21.5729
  0
LINE
  8
0
 10
17.0938
 20
21.5729
 11
17.0244
 21
21.3686
  0
LINE
  8
0
 10
17.0244
 20
21.3686
 11
16.9289
 21
21.175
  0
LINE
  8
0
 10
16.9289
 20
21.175
 11
16.809
 21
20.9955
  0
LINE
  8
0
 10
16.809
 20
20.9955
 11
16.6667
 21
20.8333
  0
LINE
  8
0
 10
16.6667
 20
20.8333
 11
16.5045
 21
20.691
  0
LINE
  8
0
 10
16.5045
 20
20.691
 11
16.325
 21
20.571
  0
LINE
  8
0
 10
16.325
 20
20.571
 11
16.1314
 21
20.4756
  0
LINE
  8
0
 10
16.1314
 20
20.4756
 11
15.927
 21
20.4062
  0
LINE
  8
0
 10
15.927
 20
20.4062
 11
15.7154
 21
20.3641
  0
LINE
  8
0
 10
15.7154
 20
20.3641
 11
15.5
 21
20.35
  0
LINE
  8
0
 10
15.5
 20
20.35
 11
15.2846
 21
20.3641
  0
LINE
  8
0
 10
-15.7154
 20
20.3641
 11
-15.927
 21
20.4062
  0
LINE
  8
0
 10
-15.927
 20
20.4062
 11
-16.1314
 21
20.4756
  0
LINE
  8
0
 10
-16.1314
 20
20.4756
 11
-16.325
 21
20.571
  0
LINE
  8
0
 10
-16.325
 20
20.571
 11
-16.5045
 21
20.691
  0
LINE
  8
0
 10
-16.5045
 20
20.691
 11
-16.6667
 21
20.8333
  0
LINE
  8
0
 10
-16.6667
 20
20.8333
 11
-16.809
 21
20.9955
  0
LINE
  8
0
 10
-16.809
 20
20.9955
 11
-16.9289
 21
21.175
  0
LINE
  8
0
 10
-16.9289
 20
21.175
 11
-17.0244
 21
21.3686
  0
LINE
  8
0
 10
-17.0244
 20
21.3686
 11
-17.0938
 21
21.5729
  0
LINE
  8
0
 10
-17.0938
 20
21.5729
 11
-17.1359
 21
21.7846
  0
LINE
  8
0
 10
-17.1359
 20
21.7846
 11
-17.15
 21
22
  0
LINE
  8
0
 10
-17.15
 20
22
 11
-17.1359
 21
22.2154
  0
LINE
  8
0
 10
-17.1359
 20
22.2154
 11
-17.0938
 21
22.427
  0
LINE
  8
0
 10
-17.0938
 20
22.427
 11
-17.0244
 21
22.6314
  0
LINE
  8
0
 10
-17.0244
 20
22.6314
 11
-16.9289
 21
22.825
  0
LINE
  8
0
 10
-16.9289
 20
22.825
 11
-16.809
 21
23.0045
  0
LINE
  8
0
 10
-16.809
 20
23.0045
 11
-16.6667
 21
23.1667
  0
LINE
  8
0
 10
-16.6667
 20
23.1667
 11
-16.5045
 21
23.309
  0
LINE
  8
0
 10
-16.5045
 20
23.309
 11
-16.325
 21
23.4289
  0
LINE
  8
0
 10
-16.325
 20
23.4289
 11
-16.1314
 21
23.5244
  0
LINE
  8
0
 10
-16.1314
 20
23.5244
 11
-15.927
 21
23.5938
  0
LINE
  8
0
 10
-15.927
 20
23.5938
 11
-15.7154
 21
23.6359
  0
LINE
  8
0
 10
-15.7154
 20
23.6359
 11
-15.5
 21
23.65
  0
LINE
  8
0
 10
-15.5
 20
23.65
 11
-15.2846
 21
23.6359
  0
LINE
  8
0
 10
-15.2846
 20
23.6359
 11
-15.0729
 21
23.5938
  0
LINE
  8
0
 10
-15.0729
 20
23.5938
 11
-14.8686
 21
23.5244
  0
LINE
  8
0
 10
-14.8686
 20
23.5244
 11
-14.675
 21
23.4289
  0
LINE
  8
0
 10
-14.675
 20
23.4289
 11
-14.4955
 21
23.309
  0
LINE
  8
0
 10
-14.4955
 20
23.309
 11
-14.3333
 21
23.1667
  0
LINE
  8
0
 10
-14.3333
 20
23.1667
 11
-14.191
 21
23.0045
  0
LINE
  8
0
 10
-14.191
 20
23.0045
 11
-14.071
 21
22.825
  0
LINE
  8
0
 10
-14.071
 20
22.825
 11
-13.9756
 21
22.6314
  0
LINE
  8
0
 10
-13.9756
 20
22.6314
 11
-13.9062
 21
22.427
  0
LINE
  8
0
 10
-13.9062
 20
22.427
 11
-13.8641
 21
22.2154
  0
LINE
  8
0
 10
-13.8641
 20
22.2154
 11
-13.85
 21
22
  0
LINE
  8
0
 10
-13.85
 20
22
 11
-13.8641
 21
21.7846
  0
LINE
  8
0
 10
-13.8641
 20
21.7846
 11
-13.9062
 21
21.5729
  0
LINE
  8
0
 10
-13.9062
 20
21.5729
 11
-13.9756
 21
21.3686
  0
LINE
  8
0
 10
-13.9756
 20
21.3686
 11
-14.071
 21
21.175
  0
LINE
  8
0
 10
-14.071
 20
21.175
 11
-14.191
 21
20.9955
  0
LINE
  8
0
 10
-14.191
 20
20.9955
 11
-14.3333
 21
20.8333
  0
LINE
  8
0
 10
-14.3333
 20
20.8333
 11
-14.4955
 21
20.691
  0
LINE
  8
0
 10
-14.4955
 20
20.691
 11
-14.675
 21
20.571
  0
LINE
  8
0
 10
-14.675
 20
20.571
 11
-14.8686
 21
20.4756
  0
LINE
  8
0
 10
-14.8686
 20
20.4756
 11
-15.0729
 21
20.4062
  0
LINE
  8
0
 10
-15.0729
 20
20.4062
 11
-15.2846
 21
20.3641
  0
LINE
  8
0
 10
-15.2846
 20
20.3641
 11
-15.5
 21
20.35
  0
LINE
  8
0
 10
-15.5
 20
20.35
 11
-15.7154
 21
20.3641
  0
LINE
  8
0
 10
15.2846
 20
-23.6359
 11
15.0729
 21
-23.5938
  0
LINE
  8
0
 10
15.0729
 20
-23.5938
 11
14.8686
 21
-23.5244
  0
LINE
  8
0
 10
14.8686
 20
-23.5244
 11
14.675
 21
-23.4289
  0
LINE
  8
0
 10
14.675
 20
-23.4289
 11
14.4955
 21
-23.309
  0
LINE
  8
0
 10
14.4955
 20
-23.309
 11
14.3333
 21
-23.1667
  0
LINE
  8
0
 10
14.3333
 20
-23.1667
 11
14.191
 21
-23.0045
  0
LINE
  8
0
 10
14.191
 20
-23.0045
 11
14.071
 21
-22.825
  0
LINE
  8
0
 10
14.071
 20
-22.825
 11
13.9756
 21
-22.6314
  0
LINE
  8
0
 10
13.9756
 20
-22.6314
 11
13.9062
 21
-22.427
  0
LINE
  8
0
 10
13.9062
 20
-22.427
 11
13.8641
 21
-22.2154
  0
LINE
  8
0
 10
13.8641
 20
-22.2154
 11
13.85
 21
-22
  0
LINE
  8
0
 10
13.85
 20
-22
 11
13.8641
 21
-21.7846
  0
LINE
  8
0
 10
13.8641
 20
-21.7846
 11
13.9062
 21
-21.5729
  0
LINE
  8
0
 10
13.9062
 20
-21.5729
 11
13.9756
 21
-21.3686
  0
LINE
  8
0
 10
13.9756
 20
-21.3686
 11
14.071
 21
-21.175
  0
LINE
  8
0
 10
14.071
 20
-21.175
 11
14.191
 21
-20.9955
  0
LINE
  8
0
 10
14.191
 20
-20.9955
 11
14.3333
 21
-20.8333
  0
LINE
  8
0
 10
14.3333
 20
-20.8333
 11
14.4955
 21
-20.691
  0
LINE
  8
0
 10
14.4955
 20
-20.691
 11
14.675
 21
-20.571
  0
LINE
  8
0
 10
14.675
 20
-20.571
 11
14.8686
 21
-20.4756
  0
LINE
  8
0
 10
14.8686
 20
-20.4756
 11
15.0729
 21
-20.4062
  0
LINE
  8
0
 10
15.0729
 20
-20.4062
 11
15.2846
 21
-20.3641
  0
LINE
  8
0
 10
15.2846
 20
-20.3641
 11
15.5
 21
-20.35
  0
LINE
  8
0
 10
15.5
 20
-20.35
 11
15.7154
 21
-20.3641
  0
LINE
  8
0
 10
15.7154
 20
-20.3641
 11
15.927
 21
-20.4062
  0
LINE
  8
0
 10
15.927
 20
-20.4062
 11
16.1314
 21
-20.4756
  0
LINE
  8
0
 10
16.1314
 20
-20.4756
 11
16.325
 21
-20.571
  0
LINE
  8
0
 10
16.325
 20
-20.571
 11
16.5045
 21
-20.691
  0
LINE
  8
0
 10
16.5045
 20
-20.691
 11
16.6667
 21
-20.8333
  0
LINE
  8
0
 10
16.6667
 20
-20.8333
 11
16.809
 21
-20.9955
  0
LINE
  8
0
 10
16.809
 20
-20.9955
 11
16.9289
 21
-21.175
  0
LINE
  8
0
 10
16.9289
 20
-21.175
 11
17.0244
 21
-21.3686
  0
LINE
  8
0
 10
17.0244
 20
-21.3686
 11
17.0938
 21
-21.5729
  0
LINE
  8
0
 10
17.0938
 20
-21.5729
 11
17.1359
 21
-21.7846
  0
LINE
  8
0
 10
17.1359
 20
-21.7846
 11
17.15
 21
-22
  0
LINE
  8
0
 10
17.15
 20
-22
 11
17.1359
 21
-22.2154
  0
LINE
  8
0
 10
17.1359
 20
-22.2154
 11
17.0938
 21
-22.427
  0
LINE
  8
0
 10
17.0938
 20
-22.427
 11
17.0244
 21
-22.6314
  0
LINE
  8
0
 10
17.0244
 20
-22.6314
 11
16.9289
 21
-22.825
  0
LINE
  8
0
 10
16.9289
 20
-22.825
 11
16.809
 21
-23.0045
  0
LINE
  8
0
 10
16.809
 20
-23.0045
 11
16.6667
 21
-23.1667
  0
LINE
  8
0
 10
16.6667
 20
-23.1667
 11
16.5045
 21
-23.309
  0
LINE
  8
0
 10
16.5045
 20
-23.309
 11
16.325
 21
-23.4289
  0
LINE
  8
0
 10
16.325
 20
-23.4289
 11
16.1314
 21
-23.5244
  0
LINE
  8
0
 10
16.1314
 20
-23.5244
 11
15.927
 21
-23.5938
  0
LINE
  8
0
 10
15.927
 20
-23.5938
 11
15.7154
 21
-23.6359
  0
LINE
  8
0
 10
15.7154
 20
-23.6359
 11
15.5
 21
-23.65
  0
LINE
  8
0
 10
15.5
 20
-23.65
 11
15.2846
 21
-23.6359
  0
LINE
  8
0
 10
-15.7154
 20
-23.6359
 11
-15.927
 21
-23.5938
  0
LINE
  8
0
 10
-15.927
 20
-23.5938
 11
-16.1314
 21
-23.5244
  0
LINE
  8
0
 10
-16.1314
 20
-23.5244
 11
-16.325
 21
-23.4289
  0
LINE
  8
0
 10
-16.325
 20
-23.4289
 11
-16.5045
 21
-23.309
  0
LINE
  8
0
 10
-16.5045
 20
-23.309
 11
-16.6667
 21
-23.1667
  0
LINE
  8
0
 10
-16.6667
 20
-23.1667
 11
-16.809
 21
-23.0045
  0
LINE
  8
0
 10
-16.809
 20
-23.0045
 11
-16.9289
 21
-22.825
  0
LINE
  8
0
 10
-16.9289
 20
-22.825
 11
-17.0244
 21
-22.6314
  0
LINE
  8
0
 10
-17.0244
 20
-22.6314
 11
-17.0938
 21
-22.427
  0
LINE
  8
0
 10
-17.0938
 20
-22.427
 11
-17.1359
 21
-22.2154
  0
LINE
  8
0
 10
-17.1359
 20
-22.2154
 11
-17.15
 21
-22
  0
LINE
  8
0
 10
-17.15
 20
-22
 11
-17.1359
 21
-21.7846
  0
LINE
  8
0
 10
-17.1359
 20
-21.7846
 11
-17.0938
 21
-21.5729
  0
LINE
  8
0
 10
-17.0938
 20
-21.5729
 11
-17.0244
 21
-21.3686
  0
LINE
  8
0
 10
-17.0244
 20
-21.3686
 11
-16.9289
 21
-21.175
  0
LINE
  8
0
 10
-16.9289
 20
-21.175
 11
-16.809
 21
-20.9955
  0
LINE
  8
0
 10
-16.809
 20
-20.9955
 11
-16.6667
 21
-20.8333
  0
LINE
  8
0
 10
-16.6667
 20
-20.8333
 11
-16.5045
 21
-20.691
  0
LINE
  8
0
 10
-16.5045
 20
-20.691
 11
-16.325
 21
-20.571
  0
LINE
  8
0
 10
-16.325
 20
-20.571
 11
-16.1314
 21
-20.4756
  0
LINE
  8
0
 10
-16.1314
 20
-20.4756
 11
-15.927
 21
-20.4062
  0
LINE
  8
0
 10
-15.927
 20
-20.4062
 11
-15.7154
 21
-20.3641
  0
LINE
  8
0
 10
-15.7154
 20
-20.3641
 11
-15.5
 21
-20.35
  0
LINE
  8
0
 10
-15.5
 20
-20.35
 11
-15.2846
 21
-20.3641
  0
LINE
  8
0
 10
-15.2846
 20
-20.3641
 11
-15.0729
 21
-20.4062
  0
LINE
  8
0
 10
-15.0729
 20
-20.4062
 11
-14.8686
 21
-20.4756
  0
LINE
  8
0
 10
-14.8686
 20
-20.4756
 11
-14.675
 21
-20.571
  0
LINE
  8
0
 10
-14.675
 20
-20.571
 11
-14.4955
 21
-20.691
  0
LINE
  8
0
 10
-14.4955
 20
-20.691
 11
-14.3333
 21
-20.8333
  0
LINE
  8
0
 10
-14.3333
 20
-20.8333
 11
-14.191
 21
-20.9955
  0
LINE
  8
0
 10
-14.191
 20
-20.9955
 11
-14.071
 21
-21.175
  0
LINE
  8
0
 10
-14.071
 20
-21.175
 11
-13.9756
 21
-21.3686
  0
LINE
  8
0
 10
-13.9756
 20
-21.3686
 11
-13.9062
 21
-21.5729
  0
LINE
  8
0
 10
-13.9062
 20
-21.5729
 11
-13.8641
 21
-21.7846
  0
LINE
  8
0
 10
-13.8641
 20
-21.7846
 11
-13.85
 21
-22
  0
LINE
  8
0
 10
-13.85
 20
-22
 11
-13.8641
 21
-22.2154
  0
LINE
  8
0
 10
-13.8641
 20
-22.2154
 11
-13.9062
 21
-22.427
  0
LINE
  8
0
 10
-13.9062
 20
-22.427
 11
-13.9756
 21
-22.6314
  0
LINE
  8
0
 10
-13.9756
 20
-22.6314
 11
-14.071
 21
-22.825
  0
LINE
  8
0
 10
-14.071
 20
-22.825
 11
-14.191
 21
-23.0045
  0
LINE
  8
0
 10
-14.191
 20
-23.0045
 11
-14.3333
 21
-23.1667
  0
LINE
  8
0
 10
-14.3333
 20
-23.1667
 11
-14.4955
 21
-23.309
  0
LINE
  8
0
 10
-14.4955
 20
-23.309
 11
-14.675
 21
-23.4289
  0
LINE
  8
0
 10
-14.675
 20
-23.4289
 11
-14.8686
 21
-23.5244
  0
LINE
  8
0
 10
-14.8686
 20
-23.5244
 11
-15.0729
 21
-23.5938
  0
LINE
  8
0
 10
-15.0729
 20
-23.5938
 11
-15.2846
 21
-23.6359
  0
LINE
  8
0
 10
-15.2846
 20
-23.6359
 11
-15.5
 21
-23.65
  0
LINE
  8
0
 10
-15.5
 20
-23.65
 11
-15.7154
 21
-23.6359
  0
ENDSEC
  0
SECTION
  2
OBJECTS
  0
DICTIONARY
  0
ENDSEC
  0
EOF
