  0
SECTION
  2
BLOCKS
  0
ENDSEC
  0
SECTION
  2
ENTITIES
  0
LINE
  8
0
 10
50.6526
 20
-25.4572
 11
51.2941
 21
-25.3296
  0
LINE
  8
0
 10
51.2941
 20
-25.3296
 11
51.9134
 21
-25.1194
  0
LINE
  8
0
 10
51.9134
 20
-25.1194
 11
52.5
 21
-24.8301
  0
LINE
  8
0
 10
52.5
 20
-24.8301
 11
53.0438
 21
-24.4668
  0
LINE
  8
0
 10
53.0438
 20
-24.4668
 11
53.5355
 21
-24.0355
  0
LINE
  8
0
 10
53.5355
 20
-24.0355
 11
53.9668
 21
-23.5438
  0
LINE
  8
0
 10
53.9668
 20
-23.5438
 11
54.3301
 21
-23
  0
LINE
  8
0
 10
54.3301
 20
-23
 11
54.6194
 21
-22.4134
  0
LINE
  8
0
 10
54.6194
 20
-22.4134
 11
54.8296
 21
-21.7941
  0
LINE
  8
0
 10
54.8296
 20
-21.7941
 11
54.9572
 21
-21.1526
  0
LINE
  8
0
 10
54.9572
 20
-21.1526
 11
55
 21
-20.5
  0
LINE
  8
0
 10
55
 20
-20.5
 11
55
 21
20.5
  0
LINE
  8
0
 10
55
 20
20.5
 11
54.9572
 21
21.1526
  0
LINE
  8
0
 10
54.9572
 20
21.1526
 11
54.8296
 21
21.7941
  0
LINE
  8
0
 10
54.8296
 20
21.7941
 11
54.6194
 21
22.4134
  0
LINE
  8
0
 10
54.6194
 20
22.4134
 11
54.3301
 21
23
  0
LINE
  8
0
 10
54.3301
 20
23
 11
53.9668
 21
23.5438
  0
LINE
  8
0
 10
53.9668
 20
23.5438
 11
53.5355
 21
24.0355
  0
LINE
  8
0
 10
53.5355
 20
24.0355
 11
53.0438
 21
24.4668
  0
LINE
  8
0
 10
53.0438
 20
24.4668
 11
52.5
 21
24.8301
  0
LINE
  8
0
 10
52.5
 20
24.8301
 11
51.9134
 21
25.1194
  0
LINE
  8
0
 10
51.9134
 20
25.1194
 11
51.2941
 21
25.3296
  0
LINE
  8
0
 10
51.2941
 20
25.3296
 11
50.6526
 21
25.4572
  0
LINE
  8
0
 10
50.6526
 20
25.4572
 11
50
 21
25.5
  0
LINE
  8
0
 10
50
 20
25.5
 11
-27
 21
25.5
  0
LINE
  8
0
 10
-27
 20
25.5
 11
-27.6526
 21
25.4572
  0
LINE
  8
0
 10
-27.6526
 20
25.4572
 11
-28.2941
 21
25.3296
  0
LINE
  8
0
 10
-28.2941
 20
25.3296
 11
-28.9134
 21
25.1194
  0
LINE
  8
0
 10
-28.9134
 20
25.1194
 11
-29.5
 21
24.8301
  0
LINE
  8
0
 10
-29.5
 20
24.8301
 11
-30.0438
 21
24.4668
  0
LINE
  8
0
 10
-30.0438
 20
24.4668
 11
-30.5355
 21
24.0355
  0
LINE
  8
0
 10
-30.5355
 20
24.0355
 11
-30.9668
 21
23.5438
  0
LINE
  8
0
 10
-30.9668
 20
23.5438
 11
-31.3301
 21
23
  0
LINE
  8
0
 10
-31.3301
 20
23
 11
-31.6194
 21
22.4134
  0
LINE
  8
0
 10
-31.6194
 20
22.4134
 11
-31.8296
 21
21.7941
  0
LINE
  8
0
 10
-31.8296
 20
21.7941
 11
-31.9572
 21
21.1526
  0
LINE
  8
0
 10
-31.9572
 20
21.1526
 11
-32
 21
20.5
  0
LINE
  8
0
 10
-32
 20
20.5
 11
-32
 21
-20.5
  0
LINE
  8
0
 10
-32
 20
-20.5
 11
-31.9572
 21
-21.1526
  0
LINE
  8
0
 10
-31.9572
 20
-21.1526
 11
-31.8296
 21
-21.7941
  0
LINE
  8
0
 10
-31.8296
 20
-21.7941
 11
-31.6194
 21
-22.4134
  0
LINE
  8
0
 10
-31.6194
 20
-22.4134
 11
-31.3301
 21
-23
  0
LINE
  8
0
 10
-31.3301
 20
-23
 11
-30.9668
 21
-23.5438
  0
LINE
  8
0
 10
-30.9668
 20
-23.5438
 11
-30.5355
 21
-24.0355
  0
LINE
  8
0
 10
-30.5355
 20
-24.0355
 11
-30.0438
 21
-24.4668
  0
LINE
  8
0
 10
-30.0438
 20
-24.4668
 11
-29.5
 21
-24.8301
  0
LINE
  8
0
 10
-29.5
 20
-24.8301
 11
-28.9134
 21
-25.1194
  0
LINE
  8
0
 10
-28.9134
 20
-25.1194
 11
-28.2941
 21
-25.3296
  0
LINE
  8
0
 10
-28.2941
 20
-25.3296
 11
-27.6526
 21
-25.4572
  0
LINE
  8
0
 10
-27.6526
 20
-25.4572
 11
-27
 21
-25.5
  0
LINE
  8
0
 10
-27
 20
-25.5
 11
50
 21
-25.5
  0
LINE
  8
0
 10
50
 20
-25.5
 11
50.6526
 21
-25.4572
  0
LINE
  8
0
 10
21.7846
 20
13.8641
 11
21.5729
 21
13.9062
  0
LINE
  8
0
 10
21.5729
 20
13.9062
 11
21.3686
 21
13.9756
  0
LINE
  8
0
 10
21.3686
 20
13.9756
 11
21.175
 21
14.071
  0
LINE
  8
0
 10
21.175
 20
14.071
 11
20.9955
 21
14.191
  0
LINE
  8
0
 10
20.9955
 20
14.191
 11
20.8333
 21
14.3333
  0
LINE
  8
0
 10
20.8333
 20
14.3333
 11
20.691
 21
14.4955
  0
LINE
  8
0
 10
20.691
 20
14.4955
 11
20.571
 21
14.675
  0
LINE
  8
0
 10
20.571
 20
14.675
 11
20.4756
 21
14.8686
  0
LINE
  8
0
 10
20.4756
 20
14.8686
 11
20.4062
 21
15.0729
  0
LINE
  8
0
 10
20.4062
 20
15.0729
 11
20.3641
 21
15.2846
  0
LINE
  8
0
 10
20.3641
 20
15.2846
 11
20.35
 21
15.5
  0
LINE
  8
0
 10
20.35
 20
15.5
 11
20.3641
 21
15.7154
  0
LINE
  8
0
 10
20.3641
 20
15.7154
 11
20.4062
 21
15.927
  0
LINE
  8
0
 10
20.4062
 20
15.927
 11
20.4756
 21
16.1314
  0
LINE
  8
0
 10
20.4756
 20
16.1314
 11
20.571
 21
16.325
  0
LINE
  8
0
 10
20.571
 20
16.325
 11
20.691
 21
16.5045
  0
LINE
  8
0
 10
20.691
 20
16.5045
 11
20.8333
 21
16.6667
  0
LINE
  8
0
 10
20.8333
 20
16.6667
 11
20.9955
 21
16.809
  0
LINE
  8
0
 10
20.9955
 20
16.809
 11
21.175
 21
16.9289
  0
LINE
  8
0
 10
21.175
 20
16.9289
 11
21.3686
 21
17.0244
  0
LINE
  8
0
 10
21.3686
 20
17.0244
 11
21.5729
 21
17.0938
  0
LINE
  8
0
 10
21.5729
 20
17.0938
 11
21.7846
 21
17.1359
  0
LINE
  8
0
 10
21.7846
 20
17.1359
 11
22
 21
17.15
  0
LINE
  8
0
 10
22
 20
17.15
 11
22.2154
 21
17.1359
  0
LINE
  8
0
 10
22.2154
 20
17.1359
 11
22.427
 21
17.0938
  0
LINE
  8
0
 10
22.427
 20
17.0938
 11
22.6314
 21
17.0244
  0
LINE
  8
0
 10
22.6314
 20
17.0244
 11
22.825
 21
16.9289
  0
LINE
  8
0
 10
22.825
 20
16.9289
 11
23.0045
 21
16.809
  0
LINE
  8
0
 10
23.0045
 20
16.809
 11
23.1667
 21
16.6667
  0
LINE
  8
0
 10
23.1667
 20
16.6667
 11
23.309
 21
16.5045
  0
LINE
  8
0
 10
23.309
 20
16.5045
 11
23.4289
 21
16.325
  0
LINE
  8
0
 10
23.4289
 20
16.325
 11
23.5244
 21
16.1314
  0
LINE
  8
0
 10
23.5244
 20
16.1314
 11
23.5938
 21
15.927
  0
LINE
  8
0
 10
23.5938
 20
15.927
 11
23.6359
 21
15.7154
  0
LINE
  8
0
 10
23.6359
 20
15.7154
 11
23.65
 21
15.5
  0
LINE
  8
0
 10
23.65
 20
15.5
 11
23.6359
 21
15.2846
  0
LINE
  8
0
 10
23.6359
 20
15.2846
 11
23.5938
 21
15.0729
  0
LINE
  8
0
 10
23.5938
 20
15.0729
 11
23.5244
 21
14.8686
  0
LINE
  8
0
 10
23.5244
 20
14.8686
 11
23.4289
 21
14.675
  0
LINE
  8
0
 10
23.4289
 20
14.675
 11
23.309
 21
14.4955
  0
LINE
  8
0
 10
23.309
 20
14.4955
 11
23.1667
 21
14.3333
  0
LINE
  8
0
 10
23.1667
 20
14.3333
 11
23.0045
 21
14.191
  0
LINE
  8
0
 10
23.0045
 20
14.191
 11
22.825
 21
14.071
  0
LINE
  8
0
 10
22.825
 20
14.071
 11
22.6314
 21
13.9756
  0
LINE
  8
0
 10
22.6314
 20
13.9756
 11
22.427
 21
13.9062
  0
LINE
  8
0
 10
22.427
 20
13.9062
 11
22.2154
 21
13.8641
  0
LINE
  8
0
 10
22.2154
 20
13.8641
 11
22
 21
13.85
  0
LINE
  8
0
 10
22
 20
13.85
 11
21.7846
 21
13.8641
  0
LINE
  8
0
 10
-22.2154
 20
13.8641
 11
-22.427
 21
13.9062
  0
LINE
  8
0
 10
-22.427
 20
13.9062
 11
-22.6314
 21
13.9756
  0
LINE
  8
0
 10
-22.6314
 20
13.9756
 11
-22.825
 21
14.071
  0
LINE
  8
0
 10
-22.825
 20
14.071
 11
-23.0045
 21
14.191
  0
LINE
  8
0
 10
-23.0045
 20
14.191
 11
-23.1667
 21
14.3333
  0
LINE
  8
0
 10
-23.1667
 20
14.3333
 11
-23.309
 21
14.4955
  0
LINE
  8
0
 10
-23.309
 20
14.4955
 11
-23.4289
 21
14.675
  0
LINE
  8
0
 10
-23.4289
 20
14.675
 11
-23.5244
 21
14.8686
  0
LINE
  8
0
 10
-23.5244
 20
14.8686
 11
-23.5938
 21
15.0729
  0
LINE
  8
0
 10
-23.5938
 20
15.0729
 11
-23.6359
 21
15.2846
  0
LINE
  8
0
 10
-23.6359
 20
15.2846
 11
-23.65
 21
15.5
  0
LINE
  8
0
 10
-23.65
 20
15.5
 11
-23.6359
 21
15.7154
  0
LINE
  8
0
 10
-23.6359
 20
15.7154
 11
-23.5938
 21
15.927
  0
LINE
  8
0
 10
-23.5938
 20
15.927
 11
-23.5244
 21
16.1314
  0
LINE
  8
0
 10
-23.5244
 20
16.1314
 11
-23.4289
 21
16.325
  0
LINE
  8
0
 10
-23.4289
 20
16.325
 11
-23.309
 21
16.5045
  0
LINE
  8
0
 10
-23.309
 20
16.5045
 11
-23.1667
 21
16.6667
  0
LINE
  8
0
 10
-23.1667
 20
16.6667
 11
-23.0045
 21
16.809
  0
LINE
  8
0
 10
-23.0045
 20
16.809
 11
-22.825
 21
16.9289
  0
LINE
  8
0
 10
-22.825
 20
16.9289
 11
-22.6314
 21
17.0244
  0
LINE
  8
0
 10
-22.6314
 20
17.0244
 11
-22.427
 21
17.0938
  0
LINE
  8
0
 10
-22.427
 20
17.0938
 11
-22.2154
 21
17.1359
  0
LINE
  8
0
 10
-22.2154
 20
17.1359
 11
-22
 21
17.15
  0
LINE
  8
0
 10
-22
 20
17.15
 11
-21.7846
 21
17.1359
  0
LINE
  8
0
 10
-21.7846
 20
17.1359
 11
-21.5729
 21
17.0938
  0
LINE
  8
0
 10
-21.5729
 20
17.0938
 11
-21.3686
 21
17.0244
  0
LINE
  8
0
 10
-21.3686
 20
17.0244
 11
-21.175
 21
16.9289
  0
LINE
  8
0
 10
-21.175
 20
16.9289
 11
-20.9955
 21
16.809
  0
LINE
  8
0
 10
-20.9955
 20
16.809
 11
-20.8333
 21
16.6667
  0
LINE
  8
0
 10
-20.8333
 20
16.6667
 11
-20.691
 21
16.5045
  0
LINE
  8
0
 10
-20.691
 20
16.5045
 11
-20.571
 21
16.325
  0
LINE
  8
0
 10
-20.571
 20
16.325
 11
-20.4756
 21
16.1314
  0
LINE
  8
0
 10
-20.4756
 20
16.1314
 11
-20.4062
 21
15.927
  0
LINE
  8
0
 10
-20.4062
 20
15.927
 11
-20.3641
 21
15.7154
  0
LINE
  8
0
 10
-20.3641
 20
15.7154
 11
-20.35
 21
15.5
  0
LINE
  8
0
 10
-20.35
 20
15.5
 11
-20.3641
 21
15.2846
  0
LINE
  8
0
 10
-20.3641
 20
15.2846
 11
-20.4062
 21
15.0729
  0
LINE
  8
0
 10
-20.4062
 20
15.0729
 11
-20.4756
 21
14.8686
  0
LINE
  8
0
 10
-20.4756
 20
14.8686
 11
-20.571
 21
14.675
  0
LINE
  8
0
 10
-20.571
 20
14.675
 11
-20.691
 21
14.4955
  0
LINE
  8
0
 10
-20.691
 20
14.4955
 11
-20.8333
 21
14.3333
  0
LINE
  8
0
 10
-20.8333
 20
14.3333
 11
-20.9955
 21
14.191
  0
LINE
  8
0
 10
-20.9955
 20
14.191
 11
-21.175
 21
14.071
  0
LINE
  8
0
 10
-21.175
 20
14.071
 11
-21.3686
 21
13.9756
  0
LINE
  8
0
 10
-21.3686
 20
13.9756
 11
-21.5729
 21
13.9062
  0
LINE
  8
0
 10
-21.5729
 20
13.9062
 11
-21.7846
 21
13.8641
  0
LINE
  8
0
 10
-21.7846
 20
13.8641
 11
-22
 21
13.85
  0
LINE
  8
0
 10
-22
 20
13.85
 11
-22.2154
 21
13.8641
  0
LINE
  8
0
 10
36.7846
 20
5.86411
 11
36.5729
 21
5.90622
  0
LINE
  8
0
 10
36.5729
 20
5.90622
 11
36.3686
 21
5.97559
  0
LINE
  8
0
 10
36.3686
 20
5.97559
 11
36.175
 21
6.07104
  0
LINE
  8
0
 10
36.175
 20
6.07104
 11
35.9955
 21
6.19096
  0
LINE
  8
0
 10
35.9955
 20
6.19096
 11
35.8333
 21
6.33327
  0
LINE
  8
0
 10
35.8333
 20
6.33327
 11
35.691
 21
6.49553
  0
LINE
  8
0
 10
35.691
 20
6.49553
 11
35.571
 21
6.67499
  0
LINE
  8
0
 10
35.571
 20
6.67499
 11
35.4756
 21
6.86856
  0
LINE
  8
0
 10
35.4756
 20
6.86856
 11
35.4062
 21
7.07294
  0
LINE
  8
0
 10
35.4062
 20
7.07294
 11
35.3641
 21
7.28462
  0
LINE
  8
0
 10
35.3641
 20
7.28462
 11
35.35
 21
7.5
  0
LINE
  8
0
 10
35.35
 20
7.5
 11
35.3641
 21
7.71536
  0
LINE
  8
0
 10
35.3641
 20
7.71536
 11
35.4062
 21
7.92705
  0
LINE
  8
0
 10
35.4062
 20
7.92705
 11
35.4756
 21
8.13142
  0
LINE
  8
0
 10
35.4756
 20
8.13142
 11
35.571
 21
8.325
  0
LINE
  8
0
 10
35.571
 20
8.325
 11
35.691
 21
8.50446
  0
LINE
  8
0
 10
35.691
 20
8.50446
 11
35.8333
 21
8.66672
  0
LINE
  8
0
 10
35.8333
 20
8.66672
 11
35.9955
 21
8.80902
  0
LINE
  8
0
 10
35.9955
 20
8.80902
 11
36.175
 21
8.92894
  0
LINE
  8
0
 10
36.175
 20
8.92894
 11
36.3686
 21
9.0244
  0
LINE
  8
0
 10
36.3686
 20
9.0244
 11
36.5729
 21
9.09377
  0
LINE
  8
0
 10
36.5729
 20
9.09377
 11
36.7846
 21
9.13588
  0
LINE
  8
0
 10
36.7846
 20
9.13588
 11
37
 21
9.14999
  0
LINE
  8
0
 10
37
 20
9.14999
 11
37.2154
 21
9.13588
  0
LINE
  8
0
 10
37.2154
 20
9.13588
 11
37.427
 21
9.09377
  0
LINE
  8
0
 10
37.427
 20
9.09377
 11
37.6314
 21
9.0244
  0
LINE
  8
0
 10
37.6314
 20
9.0244
 11
37.825
 21
8.92894
  0
LINE
  8
0
 10
37.825
 20
8.92894
 11
38.0045
 21
8.80902
  0
LINE
  8
0
 10
38.0045
 20
8.80902
 11
38.1667
 21
8.66672
  0
LINE
  8
0
 10
38.1667
 20
8.66672
 11
38.309
 21
8.50446
  0
LINE
  8
0
 10
38.309
 20
8.50446
 11
38.4289
 21
8.325
  0
LINE
  8
0
 10
38.4289
 20
8.325
 11
38.5244
 21
8.13142
  0
LINE
  8
0
 10
38.5244
 20
8.13142
 11
38.5938
 21
7.92705
  0
LINE
  8
0
 10
38.5938
 20
7.92705
 11
38.6359
 21
7.71536
  0
LINE
  8
0
 10
38.6359
 20
7.71536
 11
38.65
 21
7.5
  0
LINE
  8
0
 10
38.65
 20
7.5
 11
38.6359
 21
7.28462
  0
LINE
  8
0
 10
38.6359
 20
7.28462
 11
38.5938
 21
7.07294
  0
LINE
  8
0
 10
38.5938
 20
7.07294
 11
38.5244
 21
6.86856
  0
LINE
  8
0
 10
38.5244
 20
6.86856
 11
38.4289
 21
6.67499
  0
LINE
  8
0
 10
38.4289
 20
6.67499
 11
38.309
 21
6.49553
  0
LINE
  8
0
 10
38.309
 20
6.49553
 11
38.1667
 21
6.33327
  0
LINE
  8
0
 10
38.1667
 20
6.33327
 11
38.0045
 21
6.19096
  0
LINE
  8
0
 10
38.0045
 20
6.19096
 11
37.825
 21
6.07104
  0
LINE
  8
0
 10
37.825
 20
6.07104
 11
37.6314
 21
5.97559
  0
LINE
  8
0
 10
37.6314
 20
5.97559
 11
37.427
 21
5.90622
  0
LINE
  8
0
 10
37.427
 20
5.90622
 11
37.2154
 21
5.86411
  0
LINE
  8
0
 10
37.2154
 20
5.86411
 11
37
 21
5.84999
  0
LINE
  8
0
 10
37
 20
5.84999
 11
36.7846
 21
5.86411
  0
LINE
  8
0
 10
36.7846
 20
-9.13588
 11
36.5729
 21
-9.09377
  0
LINE
  8
0
 10
36.5729
 20
-9.09377
 11
36.3686
 21
-9.0244
  0
LINE
  8
0
 10
36.3686
 20
-9.0244
 11
36.175
 21
-8.92894
  0
LINE
  8
0
 10
36.175
 20
-8.92894
 11
35.9955
 21
-8.80902
  0
LINE
  8
0
 10
35.9955
 20
-8.80902
 11
35.8333
 21
-8.66672
  0
LINE
  8
0
 10
35.8333
 20
-8.66672
 11
35.691
 21
-8.50446
  0
LINE
  8
0
 10
35.691
 20
-8.50446
 11
35.571
 21
-8.325
  0
LINE
  8
0
 10
35.571
 20
-8.325
 11
35.4756
 21
-8.13142
  0
LINE
  8
0
 10
35.4756
 20
-8.13142
 11
35.4062
 21
-7.92705
  0
LINE
  8
0
 10
35.4062
 20
-7.92705
 11
35.3641
 21
-7.71536
  0
LINE
  8
0
 10
35.3641
 20
-7.71536
 11
35.35
 21
-7.5
  0
LINE
  8
0
 10
35.35
 20
-7.5
 11
35.3641
 21
-7.28462
  0
LINE
  8
0
 10
35.3641
 20
-7.28462
 11
35.4062
 21
-7.07294
  0
LINE
  8
0
 10
35.4062
 20
-7.07294
 11
35.4756
 21
-6.86856
  0
LINE
  8
0
 10
35.4756
 20
-6.86856
 11
35.571
 21
-6.67499
  0
LINE
  8
0
 10
35.571
 20
-6.67499
 11
35.691
 21
-6.49553
  0
LINE
  8
0
 10
35.691
 20
-6.49553
 11
35.8333
 21
-6.33327
  0
LINE
  8
0
 10
35.8333
 20
-6.33327
 11
35.9955
 21
-6.19096
  0
LINE
  8
0
 10
35.9955
 20
-6.19096
 11
36.175
 21
-6.07104
  0
LINE
  8
0
 10
36.175
 20
-6.07104
 11
36.3686
 21
-5.97559
  0
LINE
  8
0
 10
36.3686
 20
-5.97559
 11
36.5729
 21
-5.90622
  0
LINE
  8
0
 10
36.5729
 20
-5.90622
 11
36.7846
 21
-5.86411
  0
LINE
  8
0
 10
36.7846
 20
-5.86411
 11
37
 21
-5.84999
  0
LINE
  8
0
 10
37
 20
-5.84999
 11
37.2154
 21
-5.86411
  0
LINE
  8
0
 10
37.2154
 20
-5.86411
 11
37.427
 21
-5.90622
  0
LINE
  8
0
 10
37.427
 20
-5.90622
 11
37.6314
 21
-5.97559
  0
LINE
  8
0
 10
37.6314
 20
-5.97559
 11
37.825
 21
-6.07104
  0
LINE
  8
0
 10
37.825
 20
-6.07104
 11
38.0045
 21
-6.19096
  0
LINE
  8
0
 10
38.0045
 20
-6.19096
 11
38.1667
 21
-6.33327
  0
LINE
  8
0
 10
38.1667
 20
-6.33327
 11
38.309
 21
-6.49553
  0
LINE
  8
0
 10
38.309
 20
-6.49553
 11
38.4289
 21
-6.67499
  0
LINE
  8
0
 10
38.4289
 20
-6.67499
 11
38.5244
 21
-6.86856
  0
LINE
  8
0
 10
38.5244
 20
-6.86856
 11
38.5938
 21
-7.07294
  0
LINE
  8
0
 10
38.5938
 20
-7.07294
 11
38.6359
 21
-7.28462
  0
LINE
  8
0
 10
38.6359
 20
-7.28462
 11
38.65
 21
-7.5
  0
LINE
  8
0
 10
38.65
 20
-7.5
 11
38.6359
 21
-7.71536
  0
LINE
  8
0
 10
38.6359
 20
-7.71536
 11
38.5938
 21
-7.92705
  0
LINE
  8
0
 10
38.5938
 20
-7.92705
 11
38.5244
 21
-8.13142
  0
LINE
  8
0
 10
38.5244
 20
-8.13142
 11
38.4289
 21
-8.325
  0
LINE
  8
0
 10
38.4289
 20
-8.325
 11
38.309
 21
-8.50446
  0
LINE
  8
0
 10
38.309
 20
-8.50446
 11
38.1667
 21
-8.66672
  0
LINE
  8
0
 10
38.1667
 20
-8.66672
 11
38.0045
 21
-8.80902
  0
LINE
  8
0
 10
38.0045
 20
-8.80902
 11
37.825
 21
-8.92894
  0
LINE
  8
0
 10
37.825
 20
-8.92894
 11
37.6314
 21
-9.0244
  0
LINE
  8
0
 10
37.6314
 20
-9.0244
 11
37.427
 21
-9.09377
  0
LINE
  8
0
 10
37.427
 20
-9.09377
 11
37.2154
 21
-9.13588
  0
LINE
  8
0
 10
37.2154
 20
-9.13588
 11
37
 21
-9.14999
  0
LINE
  8
0
 10
37
 20
-9.14999
 11
36.7846
 21
-9.13588
  0
LINE
  8
0
 10
21.7846
 20
-17.1359
 11
21.5729
 21
-17.0938
  0
LINE
  8
0
 10
21.5729
 20
-17.0938
 11
21.3686
 21
-17.0244
  0
LINE
  8
0
 10
21.3686
 20
-17.0244
 11
21.175
 21
-16.9289
  0
LINE
  8
0
 10
21.175
 20
-16.9289
 11
20.9955
 21
-16.809
  0
LINE
  8
0
 10
20.9955
 20
-16.809
 11
20.8333
 21
-16.6667
  0
LINE
  8
0
 10
20.8333
 20
-16.6667
 11
20.691
 21
-16.5045
  0
LINE
  8
0
 10
20.691
 20
-16.5045
 11
20.571
 21
-16.325
  0
LINE
  8
0
 10
20.571
 20
-16.325
 11
20.4756
 21
-16.1314
  0
LINE
  8
0
 10
20.4756
 20
-16.1314
 11
20.4062
 21
-15.927
  0
LINE
  8
0
 10
20.4062
 20
-15.927
 11
20.3641
 21
-15.7154
  0
LINE
  8
0
 10
20.3641
 20
-15.7154
 11
20.35
 21
-15.5
  0
LINE
  8
0
 10
20.35
 20
-15.5
 11
20.3641
 21
-15.2846
  0
LINE
  8
0
 10
20.3641
 20
-15.2846
 11
20.4062
 21
-15.0729
  0
LINE
  8
0
 10
20.4062
 20
-15.0729
 11
20.4756
 21
-14.8686
  0
LINE
  8
0
 10
20.4756
 20
-14.8686
 11
20.571
 21
-14.675
  0
LINE
  8
0
 10
20.571
 20
-14.675
 11
20.691
 21
-14.4955
  0
LINE
  8
0
 10
20.691
 20
-14.4955
 11
20.8333
 21
-14.3333
  0
LINE
  8
0
 10
20.8333
 20
-14.3333
 11
20.9955
 21
-14.191
  0
LINE
  8
0
 10
20.9955
 20
-14.191
 11
21.175
 21
-14.071
  0
LINE
  8
0
 10
21.175
 20
-14.071
 11
21.3686
 21
-13.9756
  0
LINE
  8
0
 10
21.3686
 20
-13.9756
 11
21.5729
 21
-13.9062
  0
LINE
  8
0
 10
21.5729
 20
-13.9062
 11
21.7846
 21
-13.8641
  0
LINE
  8
0
 10
21.7846
 20
-13.8641
 11
22
 21
-13.85
  0
LINE
  8
0
 10
22
 20
-13.85
 11
22.2154
 21
-13.8641
  0
LINE
  8
0
 10
22.2154
 20
-13.8641
 11
22.427
 21
-13.9062
  0
LINE
  8
0
 10
22.427
 20
-13.9062
 11
22.6314
 21
-13.9756
  0
LINE
  8
0
 10
22.6314
 20
-13.9756
 11
22.825
 21
-14.071
  0
LINE
  8
0
 10
22.825
 20
-14.071
 11
23.0045
 21
-14.191
  0
LINE
  8
0
 10
23.0045
 20
-14.191
 11
23.1667
 21
-14.3333
  0
LINE
  8
0
 10
23.1667
 20
-14.3333
 11
23.309
 21
-14.4955
  0
LINE
  8
0
 10
23.309
 20
-14.4955
 11
23.4289
 21
-14.675
  0
LINE
  8
0
 10
23.4289
 20
-14.675
 11
23.5244
 21
-14.8686
  0
LINE
  8
0
 10
23.5244
 20
-14.8686
 11
23.5938
 21
-15.0729
  0
LINE
  8
0
 10
23.5938
 20
-15.0729
 11
23.6359
 21
-15.2846
  0
LINE
  8
0
 10
23.6359
 20
-15.2846
 11
23.65
 21
-15.5
  0
LINE
  8
0
 10
23.65
 20
-15.5
 11
23.6359
 21
-15.7154
  0
LINE
  8
0
 10
23.6359
 20
-15.7154
 11
23.5938
 21
-15.927
  0
LINE
  8
0
 10
23.5938
 20
-15.927
 11
23.5244
 21
-16.1314
  0
LINE
  8
0
 10
23.5244
 20
-16.1314
 11
23.4289
 21
-16.325
  0
LINE
  8
0
 10
23.4289
 20
-16.325
 11
23.309
 21
-16.5045
  0
LINE
  8
0
 10
23.309
 20
-16.5045
 11
23.1667
 21
-16.6667
  0
LINE
  8
0
 10
23.1667
 20
-16.6667
 11
23.0045
 21
-16.809
  0
LINE
  8
0
 10
23.0045
 20
-16.809
 11
22.825
 21
-16.9289
  0
LINE
  8
0
 10
22.825
 20
-16.9289
 11
22.6314
 21
-17.0244
  0
LINE
  8
0
 10
22.6314
 20
-17.0244
 11
22.427
 21
-17.0938
  0
LINE
  8
0
 10
22.427
 20
-17.0938
 11
22.2154
 21
-17.1359
  0
LINE
  8
0
 10
22.2154
 20
-17.1359
 11
22
 21
-17.15
  0
LINE
  8
0
 10
22
 20
-17.15
 11
21.7846
 21
-17.1359
  0
LINE
  8
0
 10
-22.2154
 20
-17.1359
 11
-22.427
 21
-17.0938
  0
LINE
  8
0
 10
-22.427
 20
-17.0938
 11
-22.6314
 21
-17.0244
  0
LINE
  8
0
 10
-22.6314
 20
-17.0244
 11
-22.825
 21
-16.9289
  0
LINE
  8
0
 10
-22.825
 20
-16.9289
 11
-23.0045
 21
-16.809
  0
LINE
  8
0
 10
-23.0045
 20
-16.809
 11
-23.1667
 21
-16.6667
  0
LINE
  8
0
 10
-23.1667
 20
-16.6667
 11
-23.309
 21
-16.5045
  0
LINE
  8
0
 10
-23.309
 20
-16.5045
 11
-23.4289
 21
-16.325
  0
LINE
  8
0
 10
-23.4289
 20
-16.325
 11
-23.5244
 21
-16.1314
  0
LINE
  8
0
 10
-23.5244
 20
-16.1314
 11
-23.5938
 21
-15.927
  0
LINE
  8
0
 10
-23.5938
 20
-15.927
 11
-23.6359
 21
-15.7154
  0
LINE
  8
0
 10
-23.6359
 20
-15.7154
 11
-23.65
 21
-15.5
  0
LINE
  8
0
 10
-23.65
 20
-15.5
 11
-23.6359
 21
-15.2846
  0
LINE
  8
0
 10
-23.6359
 20
-15.2846
 11
-23.5938
 21
-15.0729
  0
LINE
  8
0
 10
-23.5938
 20
-15.0729
 11
-23.5244
 21
-14.8686
  0
LINE
  8
0
 10
-23.5244
 20
-14.8686
 11
-23.4289
 21
-14.675
  0
LINE
  8
0
 10
-23.4289
 20
-14.675
 11
-23.309
 21
-14.4955
  0
LINE
  8
0
 10
-23.309
 20
-14.4955
 11
-23.1667
 21
-14.3333
  0
LINE
  8
0
 10
-23.1667
 20
-14.3333
 11
-23.0045
 21
-14.191
  0
LINE
  8
0
 10
-23.0045
 20
-14.191
 11
-22.825
 21
-14.071
  0
LINE
  8
0
 10
-22.825
 20
-14.071
 11
-22.6314
 21
-13.9756
  0
LINE
  8
0
 10
-22.6314
 20
-13.9756
 11
-22.427
 21
-13.9062
  0
LINE
  8
0
 10
-22.427
 20
-13.9062
 11
-22.2154
 21
-13.8641
  0
LINE
  8
0
 10
-22.2154
 20
-13.8641
 11
-22
 21
-13.85
  0
LINE
  8
0
 10
-22
 20
-13.85
 11
-21.7846
 21
-13.8641
  0
LINE
  8
0
 10
-21.7846
 20
-13.8641
 11
-21.5729
 21
-13.9062
  0
LINE
  8
0
 10
-21.5729
 20
-13.9062
 11
-21.3686
 21
-13.9756
  0
LINE
  8
0
 10
-21.3686
 20
-13.9756
 11
-21.175
 21
-14.071
  0
LINE
  8
0
 10
-21.175
 20
-14.071
 11
-20.9955
 21
-14.191
  0
LINE
  8
0
 10
-20.9955
 20
-14.191
 11
-20.8333
 21
-14.3333
  0
LINE
  8
0
 10
-20.8333
 20
-14.3333
 11
-20.691
 21
-14.4955
  0
LINE
  8
0
 10
-20.691
 20
-14.4955
 11
-20.571
 21
-14.675
  0
LINE
  8
0
 10
-20.571
 20
-14.675
 11
-20.4756
 21
-14.8686
  0
LINE
  8
0
 10
-20.4756
 20
-14.8686
 11
-20.4062
 21
-15.0729
  0
LINE
  8
0
 10
-20.4062
 20
-15.0729
 11
-20.3641
 21
-15.2846
  0
LINE
  8
0
 10
-20.3641
 20
-15.2846
 11
-20.35
 21
-15.5
  0
LINE
  8
0
 10
-20.35
 20
-15.5
 11
-20.3641
 21
-15.7154
  0
LINE
  8
0
 10
-20.3641
 20
-15.7154
 11
-20.4062
 21
-15.927
  0
LINE
  8
0
 10
-20.4062
 20
-15.927
 11
-20.4756
 21
-16.1314
  0
LINE
  8
0
 10
-20.4756
 20
-16.1314
 11
-20.571
 21
-16.325
  0
LINE
  8
0
 10
-20.571
 20
-16.325
 11
-20.691
 21
-16.5045
  0
LINE
  8
0
 10
-20.691
 20
-16.5045
 11
-20.8333
 21
-16.6667
  0
LINE
  8
0
 10
-20.8333
 20
-16.6667
 11
-20.9955
 21
-16.809
  0
LINE
  8
0
 10
-20.9955
 20
-16.809
 11
-21.175
 21
-16.9289
  0
LINE
  8
0
 10
-21.175
 20
-16.9289
 11
-21.3686
 21
-17.0244
  0
LINE
  8
0
 10
-21.3686
 20
-17.0244
 11
-21.5729
 21
-17.0938
  0
LINE
  8
0
 10
-21.5729
 20
-17.0938
 11
-21.7846
 21
-17.1359
  0
LINE
  8
0
 10
-21.7846
 20
-17.1359
 11
-22
 21
-17.15
  0
LINE
  8
0
 10
-22
 20
-17.15
 11
-22.2154
 21
-17.1359
  0
ENDSEC
  0
SECTION
  2
OBJECTS
  0
DICTIONARY
  0
ENDSEC
  0
EOF
